<?xml version="1.0" encoding="UTF-8" standalone="no" ?>
<!DOCTYPE svg PUBLIC "-//W3C//DTD SVG 1.1//EN" "http://www.w3.org/Graphics/SVG/1.1/DTD/svg11.dtd">
<svg xmlns="http://www.w3.org/2000/svg" xmlns:xlink="http://www.w3.org/1999/xlink" version="1.1" width="1280" height="1024" viewBox="0 0 1280 1024" xml:space="preserve">
<desc>Created with Fabric.js 5.3.0</desc>
<defs>
</defs>
<g transform="matrix(1 0 0 1 640 512)" id="background-logo"  >
<rect style="stroke: none; stroke-width: 0; stroke-dasharray: none; stroke-linecap: butt; stroke-dashoffset: 0; stroke-linejoin: miter; stroke-miterlimit: 4; fill: rgb(255,255,255); fill-opacity: 0; fill-rule: nonzero; opacity: 1;"  paint-order="stroke"  x="-640" y="-512" rx="0" ry="0" width="1280" height="1024" />
</g>
<g transform="matrix(1.9211538461538462 0 0 1.9211538461538462 580.0053244152526 477.8686784197658)" id="shape-87ac70dc-1fe5-4f4b-98ec-46fb444bbb12"  >
<g style=""  paint-order="stroke"   >
		<g transform="matrix(1 0 0 1 0 0)" id="path-01"  >
<linearGradient id="SVGID_106222" gradientUnits="userSpaceOnUse" gradientTransform="matrix(1 0 0 1 0.00000999999996054157 0)"  x1="0" y1="0" x2="0" y2="250">
<stop offset="0%" style="stop-color:rgb(91,36,122);stop-opacity: 1"/>
<stop offset="100%" style="stop-color:rgb(27,206,223);stop-opacity: 1"/>
</linearGradient>
<path style="stroke: none; stroke-width: 1; stroke-dasharray: none; stroke-linecap: butt; stroke-dashoffset: 0; stroke-linejoin: miter; stroke-miterlimit: 4; fill: url(#SVGID_106222); fill-rule: nonzero; opacity: 1;"  paint-order="stroke"  transform=" translate(-83.938015, -125.00000501761726)" d="M 167.87602 0 L 59.15658 0 L 59.854279999999996 10.10048 C 60.855459999999994 24.59733 72.36569 37.14411 92.26418 45.429849999999995 C 93.25363 45.841879999999996 94.26313999999999 46.241229999999995 95.28841 46.63018999999999 C 95.62451 46.75770999999999 95.97188 46.877469999999995 96.31175999999999 47.002489999999995 C 97.00741 47.258359999999996 97.7028 47.514359999999996 98.41376 47.75977999999999 C 98.83361 47.90465999999999 99.26415999999999 48.04185999999999 99.6892 48.183029999999995 C 100.33724 48.39834 100.98431 48.61429 101.64414 48.82093999999999 C 102.10499999999999 48.965379999999996 102.57502 49.10269999999999 103.04159 49.242839999999994 C 103.68008 49.43462999999999 104.31838 49.626419999999996 104.96712 49.81025999999999 C 105.45770999999999 49.94930999999999 105.95568 50.08220999999999 106.45204 50.216719999999995 C 107.09340999999999 50.39044 107.73562 50.56332999999999 108.38641 50.72942 C 108.89834 50.860079999999996 109.41572 50.9858 109.93329 51.11165 C 110.58145 51.26929 111.23167 51.425 111.88842 51.57514 C 112.42014999999999 51.6967 112.95579 51.814409999999995 113.49297 51.931039999999996 C 114.15068 52.073809999999995 114.81134 52.21344 115.47707 52.34871 C 116.02296 52.4597 116.57123 52.56805 117.12237999999999 52.67398 C 117.79360999999999 52.80297 118.46894999999999 52.92767 119.14768 53.0491 C 119.70465999999999 53.148740000000004 120.26253999999999 53.24711 120.82439 53.341750000000005 C 121.50985 53.45716 122.20017999999999 53.566930000000006 122.89262 53.674710000000005 C 123.45902 53.76288 124.0251 53.85112 124.59604999999999 53.93417 C 125.30022 54.03663 126.01008999999999 54.13198 126.72098999999999 54.22663 C 127.28834999999998 54.30218 127.85423999999999 54.37914 128.42569999999998 54.44963 C 129.15780999999998 54.53998 129.89638999999997 54.62188 130.63496999999998 54.70396 C 131.19591999999997 54.76625 131.75437999999997 54.83148 132.31892 54.88902 C 133.09371 54.96803 133.87547999999998 55.03698 134.65672999999998 55.10689 C 135.19276 55.15482 135.72550999999999 55.2073 136.26441999999997 55.25094 C 137.12705999999997 55.32085 137.99719999999996 55.37897 138.86700999999996 55.43792 C 139.33356999999995 55.46951 139.79635999999996 55.50687 140.26490999999996 55.53532 C 141.52150999999995 55.611509999999996 142.78553999999997 55.675329999999995 144.05546999999996 55.72846 C 144.14383999999995 55.73218 144.23110999999994 55.73794 144.31953999999996 55.74153 C 145.62438999999995 55.794399999999996 146.93583999999996 55.83521 148.25331999999997 55.86354 L 147.78989999999996 161.00477 C 147.78989999999996 187.25278 132.79527999999996 211.13754 108.65727999999996 223.33778 C 106.98518999999996 224.18305 105.31943999999996 224.95451 103.65785999999996 225.66009 C 107.46488999999995 218.83094 110.22998999999996 210.45677 111.98172999999996 200.47349 C 112.69563999999995 196.38944 113.11561999999995 188.91431 113.44107999999996 179.48641 L 113.39903999999996 74.77086000000001 C 113.39903999999996 74.77086000000001 102.91074999999995 73.47953000000001 94.53273999999996 69.66846000000001 C 94.53273999999996 69.66846000000001 94.93169999999996 104.33599000000001 95.32014999999996 119.50677000000002 C 95.95442999999996 144.27843000000001 97.47155999999995 169.80983000000003 93.79968999999996 194.42412000000002 C 91.74776999999996 208.1791 87.86282999999996 232.97792 67.19945999999996 229.47596000000001 C 58.45296999999996 227.99363000000002 55.71991999999996 216.21122000000003 54.73218999999996 209.26707000000002 C 51.25085999999996 184.79183 62.30174999999996 162.39197000000001 62.30174999999996 162.39197000000001 L 0.000009999999960541572 162.39248 L 0.20505999999996055 172.04235 C 0.7833099999999606 199.21055 10.46547999999996 219.90107 28.98292999999996 233.53924999999998 C 43.817089999999965 244.46455999999998 60.98989999999996 250.00052 78.53026999999996 250.00000999999997 C 91.95416999999996 249.99949999999998 104.21835999999996 246.75605 117.18190999999996 240.20352999999997 C 147.71812999999997 224.76906999999997 166.68772999999996 194.42201999999997 166.68772999999996 161.04629999999997 L 167.23522999999997 36.723239999999976 C 167.23522999999997 36.723239999999976 166.96237999999997 36.72977999999998 166.96250999999998 36.729389999999974 L 157.51615999999999 36.95699999999997 C 156.22919 36.988209999999974 154.95708 37.00274999999997 153.69247 37.00934999999997 C 153.27256 37.01152999999997 152.85648999999998 37.00966999999997 152.43907 37.009159999999966 C 151.57483 37.00819999999997 150.71584 37.00172999999997 149.86255999999997 36.98948999999997 C 149.41604999999998 36.983079999999966 148.96941999999999 36.97692999999997 148.52598999999998 36.96744999999997 C 147.58818999999997 36.94751999999997 146.65870999999999 36.91951999999997 145.73480999999998 36.886199999999974 C 145.43434 36.875369999999975 145.12950999999998 36.86863999999997 144.83057999999997 36.85639999999997 C 143.66554999999997 36.80878999999997 142.51416999999998 36.74880999999997 141.37232999999998 36.680569999999975 C 140.94274 36.654869999999974 140.51897999999997 36.62411999999998 140.09273 36.595599999999976 C 139.33377 36.544779999999975 138.57911 36.49050999999998 137.83091 36.43071999999998 C 137.36722999999998 36.39367999999998 136.9049 36.35567999999998 136.44545 36.31524999999998 C 135.68457 36.24834999999998 134.93143999999998 36.175359999999976 134.18222 36.09942999999998 C 133.79435 36.060089999999974 133.40231 36.023939999999975 133.01757 35.98222999999998 C 131.95372 35.86681999999998 130.90224 35.74224999999998 129.86306000000002 35.60902999999998 C 129.47282 35.558979999999984 129.09026000000003 35.50374999999998 128.70360000000002 35.45126999999998 C 127.99937000000003 35.35565999999998 127.29910000000002 35.25755999999998 126.60685000000002 35.15399999999998 C 126.17008000000003 35.08869999999998 125.73620000000003 35.02135999999998 125.30430000000003 34.952919999999985 C 124.63871000000003 34.84737999999999 123.98029000000002 34.73735999999998 123.32623000000002 34.62457999999999 C 122.93470000000002 34.557039999999986 122.54004000000002 34.49154999999999 122.15274000000002 34.42150999999999 C 121.18174000000002 34.24586999999999 120.22183000000003 34.06349999999999 119.27762000000003 33.87227999999999 C 118.96177000000003 33.80832999999999 118.65477000000003 33.73943999999999 118.34199000000002 33.67375999999999 C 117.66576000000002 33.53181999999999 116.99395000000003 33.38744999999999 116.33213000000002 33.23762999999999 C 115.93734000000002 33.14829999999999 115.54722000000002 33.056479999999986 115.15762000000002 32.96445999999999 C 114.56578000000002 32.82456999999999 113.98054000000002 32.68135999999999 113.40081000000002 32.53544999999999 C 113.03556000000002 32.44349999999999 112.66851000000003 32.35249999999999 112.30813000000002 32.25817999999999 C 111.53322000000001 32.05536999999999 110.76996000000003 31.84704999999999 110.01793000000002 31.633599999999987 C 109.72015000000002 31.549079999999986 109.42622000000001 31.462829999999986 109.13203000000001 31.37670999999999 C 108.44503000000002 31.17549999999999 107.76611000000001 30.97082999999999 107.09923000000002 30.76096999999999 C 106.76108000000002 30.65452999999999 106.42934000000002 30.54559999999999 106.09645000000002 30.43704999999999 C 105.56824000000002 30.264869999999988 105.04625000000001 30.090059999999987 104.53137000000002 29.91261999999999 C 104.20533000000002 29.80021999999999 103.87910000000002 29.68808999999999 103.55851000000003 29.573699999999988 C 102.96552000000003 29.36204999999999 102.38438000000002 29.14602999999999 101.81010000000002 28.927589999999988 C 101.60043000000002 28.84780999999999 101.38384000000002 28.770529999999987 101.17667000000002 28.68984999999999 C 100.43642000000001 28.40167999999999 99.71604000000002 28.106729999999988 99.00841000000001 27.80772999999999 C 98.73312000000001 27.69135999999999 98.46598000000002 27.572489999999988 98.19562 27.45458999999999 C 97.72822000000001 27.250689999999988 97.26685 27.044989999999988 96.81458 26.83653999999999 C 96.53712 26.70863999999999 96.26087000000001 26.58034999999999 95.98917 26.450779999999988 C 95.5171 26.225669999999987 95.05656 25.99747999999999 94.60204 25.76755999999999 C 94.39032 25.660419999999988 94.17239000000001 25.55506999999999 93.96451 25.44696999999999 C 93.34031 25.12233999999999 92.7345 24.79303999999999 92.14542 24.45969999999999 C 91.93646 24.34146999999999 91.73717 24.22099999999999 91.53263 24.10168999999999 C 91.13015 23.86689999999999 90.73394 23.630829999999992 90.34895 23.39213999999999 C 90.12429 23.25289999999999 89.90289 23.11287999999999 89.68425 22.97241999999999 C 89.30983 22.731739999999988 88.94625 22.48893999999999 88.58964 22.24472999999999 C 88.40868 22.12079999999999 88.22272000000001 21.99782999999999 88.04637 21.87299999999999 C 87.54431 21.51767999999999 87.05902999999999 21.15934999999999 86.59496999999999 20.79748999999999 C 86.46059999999999 20.69271999999999 86.33646999999999 20.586279999999988 86.2053 20.480999999999987 C 85.86349999999999 20.206549999999986 85.53003 19.93074999999999 85.21033999999999 19.653029999999987 C 85.04827999999999 19.512249999999987 84.89121999999999 19.370759999999986 84.73486999999999 19.229139999999987 C 84.61375999999998 19.119439999999987 84.50199999999998 19.008509999999987 84.38434999999998 18.898359999999986 L 167.87597999999997 18.897849999999988 L 167.87597999999997 0 Z M 19.79802 181.29031 L 36.50484 181.2898 C 34.34664 192.67802 34.426610000000004 204.64244000000002 36.66171 215.47907 C 27.2456 207.16667 21.67991 195.89328 19.79802 181.29032 Z" stroke-linecap="round" />
</g>
</g>
</g>
</svg>