<?xml version="1.0" encoding="UTF-8"?>
<svg version="1.1" xmlns="http://www.w3.org/2000/svg" width="512" height="512">
<path d="M0 0 C3.69899912 0.01707559 7.39734999 0.00695085 11.09632683 -0.01032352 C51.06311663 -0.16881087 86.87873361 8.38656221 117.50805664 35.39111328 C118.48258789 36.22126953 119.45711914 37.05142578 120.46118164 37.90673828 C128.2018934 44.62124287 134.54629338 52.0716293 140.50805664 60.39111328 C140.90621582 60.94637695 141.304375 61.50164062 141.71459961 62.07373047 C150.6972996 74.82652803 157.49112184 88.86397088 161.88305664 103.82861328 C162.10952881 104.58859619 162.33600098 105.3485791 162.56933594 106.1315918 C167.00177029 122.37385688 167.95356675 138.86367167 167.89624023 155.60571289 C167.90031872 157.64353209 167.90566767 159.68134908 167.91217041 161.71916199 C167.92569904 167.19034405 167.92060567 172.66135398 167.91103315 178.13253856 C167.90335971 183.89887452 167.91050334 189.66519718 167.91519165 195.43153381 C167.9206275 205.11038824 167.91351536 214.78917367 167.89916992 224.46801758 C167.8828523 235.60501132 167.88813436 246.74184016 167.90464914 257.8788299 C167.91833175 267.49648113 167.92015063 277.11408317 167.91233313 286.73174101 C167.90769304 292.45150261 167.90692934 298.17118711 167.9169426 303.89094353 C167.92570922 309.27317835 167.91941644 314.65520388 167.90225983 320.03741646 C167.89834591 321.99431641 167.89933956 323.95123446 167.90604782 325.90812683 C168.01447823 360.79778722 159.85753825 394.78343635 137.50805664 422.39111328 C137.08057129 422.93380859 136.65308594 423.47650391 136.21264648 424.03564453 C116.73180232 448.69165182 90.52544056 465.53630973 60.38305664 474.14111328 C59.69163574 474.33995117 59.00021484 474.53878906 58.2878418 474.74365234 C46.66728211 477.8939831 35.09904572 478.71426904 23.10180664 478.72705078 C21.64611695 478.73350753 20.19042846 478.74023779 18.73474121 478.7472229 C15.69918828 478.75910508 12.66374832 478.76291349 9.62817383 478.76171875 C6.56217711 478.76155679 3.49678165 478.77536489 0.4309082 478.80273438 C-42.86773415 479.18326301 -81.44877295 469.23519632 -113.39819336 438.44970703 C-114.43242819 437.43320378 -115.46374578 436.41372283 -116.49194336 435.39111328 C-117.2209082 434.66819092 -117.2209082 434.66819092 -117.96459961 433.93066406 C-142.34635311 409.40773556 -157.66932062 373.91457223 -157.63238525 339.27407837 C-157.63535638 338.38972874 -157.6383275 337.50537911 -157.64138865 336.59423101 C-157.65001894 333.64842289 -157.6515791 330.70265567 -157.65307617 327.75683594 C-157.6577085 325.63710444 -157.66273372 323.51737376 -157.66812134 321.39764404 C-157.68121064 315.64915894 -157.68768396 309.9006855 -157.692132 304.15218782 C-157.69506941 300.55389406 -157.69917555 296.95560343 -157.70363617 293.35731125 C-157.71730434 282.07950596 -157.72697332 270.8017079 -157.73083806 259.52389491 C-157.73531191 246.5426529 -157.75283143 233.56151655 -157.78183866 220.58030665 C-157.80352506 210.52304486 -157.81354611 200.46581263 -157.81487918 190.40852773 C-157.81592258 184.41312488 -157.82173039 178.41782144 -157.83969879 172.42244339 C-157.85629931 166.77364966 -157.85827739 161.12502876 -157.84955978 155.47621918 C-157.84879568 153.41646992 -157.85304816 151.3567109 -157.86301804 149.29698563 C-158.05442223 107.24732441 -143.24653761 70.79419188 -113.99194336 40.51611328 C-97.54214355 24.63682676 -77.44726461 12.85473229 -55.61694336 6.14111328 C-54.48736206 5.78980347 -54.48736206 5.78980347 -53.33496094 5.43139648 C-50.73537196 4.67339819 -48.12550598 4.0213638 -45.49194336 3.39111328 C-44.41581787 3.11895996 -43.33969238 2.84680664 -42.23095703 2.56640625 C-28.31691366 -0.43929081 -14.161726 -0.0659771 0 0 Z " fill="#000101" transform="translate(272.491943359375,33.60888671875)"/>
<path d="M0 0 C37.29 0 74.58 0 113 0 C114.32 2.97 115.64 5.94 117 9 C121.16768622 16.0255282 126.52198809 20.46150948 134.30859375 23.13671875 C144.53999988 25.52946029 154.20655586 25.20517283 163.375 19.8984375 C171.12161209 14.29597697 174.06471595 8.85438911 178 0 C214.96 0 251.92 0 290 0 C290.1209091 35.46667011 290.1209091 35.46667011 290.14648438 50.40625 C290.16423838 60.69405641 290.18503253 70.98178875 290.22631836 81.26953125 C290.25638115 88.76430097 290.27561273 96.25901019 290.28226548 103.75383854 C290.2861494 107.71600403 290.29516617 111.67799658 290.31719017 115.6401062 C290.33782331 119.38295713 290.34378079 123.12556683 290.33932304 126.86846924 C290.34051906 128.86929432 290.35651876 130.87009422 290.3732605 132.87084961 C290.32922583 146.0431831 288.0336075 158.65404844 283.375 171 C283.02945068 171.9286084 282.68390137 172.8572168 282.32788086 173.81396484 C270.04898483 205.75615238 246.05974339 230.45071516 215.2265625 244.78515625 C208.60967802 247.70605862 201.99669929 250.17429878 195 252 C194.01 252.26683594 193.02 252.53367187 192 252.80859375 C181.96917879 255.42914579 172.65024466 256.15801128 162.3125 256.16796875 C160.4886377 256.17296135 160.4886377 256.17296135 158.62792969 256.17805481 C156.05941138 256.18310358 153.49088655 256.18546377 150.92236328 256.18530273 C147.04057656 256.18747727 143.15907984 256.20562235 139.27734375 256.22460938 C98.57805508 256.3195627 65.85664599 245.7786538 36 217.375 C11.16869809 191.79718743 -0.21501135 158.43469738 -0.11352539 123.28857422 C-0.11324271 121.93736269 -0.11340283 120.58615101 -0.1139679 119.23493958 C-0.11425271 115.59720428 -0.10840729 111.95950252 -0.10139394 108.32177496 C-0.09510758 104.50879941 -0.09455244 100.69582295 -0.09336853 96.88284302 C-0.09027071 89.67601936 -0.08207834 82.46921101 -0.07201904 75.26239407 C-0.05871025 65.51421224 -0.05334548 55.76602616 -0.04751682 46.01783752 C-0.03813729 30.67854689 -0.01820807 15.33928858 0 0 Z " fill="#01A8F3" transform="translate(132,239)"/>
<path d="M0 0 C38.22523336 0 71.35271481 10.37198017 99.26171875 37.23046875 C123.77474499 62.02324422 136.25066721 93.59307426 136.09765625 128.2265625 C136.09664917 129.31735107 136.09564209 130.40813965 136.09460449 131.53198242 C136.08941675 135.56299915 136.07545588 139.59400076 136.0625 143.625 C136.041875 152.65875 136.02125 161.6925 136 171 C99.37 171 62.74 171 25 171 C24.6875 138.0625 24.6875 138.0625 24.61206055 127.71118164 C24.57975781 124.98582604 24.54638229 122.26048285 24.51171875 119.53515625 C24.50880325 118.83805038 24.50588776 118.14094452 24.50288391 117.42271423 C24.44376001 104.92610342 23.20195579 95.11643575 14 86 C9.53071277 82.72023076 5.38995563 80.34748891 0 79 C0 52.93 0 26.86 0 0 Z " fill="#01A8F3" transform="translate(286,51)"/>
<path d="M0 0 C1.98 0 3.96 0 6 0 C8.29296596 11.30830032 10.1210296 24.81025642 3.699543 35.08640671 C-3.35659543 44.99719238 -12.61231307 53.3006225 -21.429425 61.60556865 C-25.29374783 65.277736 -29.06889643 69.03954365 -32.8551178 72.79188538 C-40.01440537 79.86054336 -47.24921988 86.84617224 -54.51549107 93.80462319 C-62.79169444 101.73833445 -70.97509205 109.76509609 -79.15381038 117.79906833 C-91.19017848 129.61761749 -103.26164862 141.39954428 -115.41629601 153.09649849 C-116.73086669 154.36159662 -118.04469211 155.62746965 -119.35773849 156.89414978 C-121.14148092 158.61396575 -122.92843722 160.33036114 -124.71665955 162.04551697 C-125.24291567 162.55354022 -125.7691718 163.06156348 -126.31137508 163.58498138 C-129.88495688 167 -129.88495688 167 -131 167 C-135.54024462 136.91475611 -135.54024462 136.91475611 -127.64367473 124.90011096 C-121.47326489 116.58563245 -113.79931167 109.52519874 -106.22858477 102.51253986 C-102.72268309 99.22758216 -99.3208048 95.83787302 -95.90536499 92.45941162 C-89.4509134 86.10567409 -82.90980451 79.84988673 -76.33102453 73.62525535 C-68.83832598 66.52611821 -61.45684197 59.31554625 -54.07926488 52.09716272 C-43.21845029 41.47792654 -32.31911613 30.89816848 -21.31359291 20.42881584 C-20.12602249 19.29841545 -18.93999292 18.16639386 -17.75558662 17.0326786 C-16.14515679 15.49246491 -14.52870615 13.95888242 -12.9100647 12.42730713 C-12.00486399 11.5670203 -11.09966328 10.70673347 -10.16703224 9.82037735 C-8 8 -8 8 -6 8 C-6 7.34 -6 6.68 -6 6 C-4.34997172 4.64613064 -2.6825613 3.31321858 -1 2 C-0.67 1.34 -0.34 0.68 0 0 Z " fill="#F9BD07" transform="translate(263,51)"/>
<path d="M0 0 C5.61 0 11.22 0 17 0 C17.0696838 18.49891463 17.12310451 36.99779173 17.15543652 55.49681091 C17.17085316 64.08776337 17.19184214 72.67863238 17.22631836 81.26953125 C17.25638115 88.76430097 17.27561273 96.25901019 17.28226548 103.75383854 C17.2861494 107.71600403 17.29516617 111.67799658 17.31719017 115.6401062 C17.33782331 119.38295713 17.34378079 123.12556683 17.33932304 126.86846924 C17.34051906 128.86929432 17.35651876 130.87009422 17.3732605 132.87084961 C17.32922583 146.0431831 15.0336075 158.65404844 10.375 171 C10.02945068 171.9286084 9.68390137 172.8572168 9.32788086 173.81396484 C-3.22578615 206.47093862 -27.999793 231.52907144 -59.75976562 245.65698242 C-64.77545625 247.8285917 -69.73397724 249.57226369 -75 251 C-72.7336936 248.3532188 -70.07487331 246.79902391 -67.0637207 245.09643555 C-58.52126376 240.26528404 -51.19212742 234.65136596 -44 228 C-43.48308594 227.52691406 -42.96617187 227.05382812 -42.43359375 226.56640625 C-24.66686931 210.13552575 -13.59923724 189.77023799 -6 167 C-5.66097656 166.0203125 -5.32195312 165.040625 -4.97265625 164.03125 C-1.28296678 152.72354497 -0.70077621 141.11295194 -0.68115234 129.30541992 C-0.67182715 127.8847956 -0.66165475 126.46417662 -0.65071106 125.04356384 C-0.62368854 121.23041693 -0.60834524 117.41730635 -0.59528303 113.6040895 C-0.57952938 109.60290524 -0.55277899 105.60179392 -0.5272522 101.60066223 C-0.48067904 94.04335546 -0.44383189 86.48603463 -0.41057932 78.92865878 C-0.37220518 70.31662573 -0.32283569 61.70466632 -0.27259517 53.09269559 C-0.169595 35.39518363 -0.08062197 17.6976271 0 0 Z " fill="#0277BB" transform="translate(405,239)"/>
<path d="M0 0 C4.5781868 2.67489566 7.12540682 5.41890267 9.7734375 10.09375 C10.14830721 12.84637811 10.31260548 15.18958389 10.27514648 17.93164062 C10.28054947 18.6934111 10.28595245 19.45518158 10.29151917 20.24003601 C10.30396805 22.74375958 10.28754198 25.2463245 10.26953125 27.75 C10.26968633 29.49825094 10.27117677 31.24650222 10.27394104 32.99475098 C10.27532331 36.65306862 10.26279599 40.3109934 10.23999023 43.96923828 C10.21160605 48.64998421 10.21434519 53.33007768 10.22708035 58.01087189 C10.23404737 61.61921729 10.22623657 65.22741287 10.21382332 68.83573914 C10.20931876 70.56124801 10.20896329 72.28677303 10.21288872 74.01228333 C10.21581104 76.42714204 10.19924614 78.84111307 10.17749023 81.25585938 C10.18199188 81.96356979 10.18649353 82.67128021 10.19113159 83.4004364 C10.11225972 88.69030517 8.89185778 92.82439902 5.23828125 96.73828125 C-0.9553409 101.47458054 -5.45790563 101.9779066 -13.2265625 101.09375 C-18.00262329 99.08847012 -21.05924876 95.78959644 -23.2265625 91.09375 C-24.44983437 87.37393681 -24.37413007 83.7600835 -24.40356445 79.8659668 C-24.41013565 79.14510895 -24.41670685 78.4242511 -24.42347717 77.68154907 C-24.44314648 75.30202113 -24.454858 72.92255609 -24.46484375 70.54296875 C-24.46891928 69.72793192 -24.4729948 68.91289509 -24.47719383 68.07316017 C-24.49802662 63.75979493 -24.51234084 59.44646125 -24.52172852 55.13305664 C-24.53279208 50.68773794 -24.56719906 46.24291991 -24.60690022 41.79777813 C-24.63309284 38.37043858 -24.64142264 34.94321795 -24.64500999 31.51578712 C-24.64986848 29.87758818 -24.66146143 28.23939428 -24.68004799 26.60129356 C-24.70449889 24.30370142 -24.7034644 22.00740026 -24.6965332 19.7097168 C-24.70239944 18.40495895 -24.70826569 17.10020111 -24.71430969 15.75590515 C-23.99031871 10.31995936 -21.59857272 5.64810457 -17.1640625 2.21875 C-12.02822005 -1.49654028 -5.96207546 -2.42666931 0 0 Z " fill="#CED7DB" transform="translate(284.2265625,145.90625)"/>
<path d="M0 0 C0 7.92 0 15.84 0 24 C-2.64 24.99 -5.28 25.98 -8 27 C-15.37329971 31.40952238 -21.34303734 37.69359512 -24 46 C-24.17304759 48.48409483 -24.3187156 50.97016134 -24.44580078 53.45703125 C-25.38302822 63.18965037 -30.1347455 68.55585087 -36.7421875 75.375 C-37.86411134 76.56251229 -38.98569612 77.75034499 -40.10696411 78.93847656 C-42.46059826 81.41133772 -44.84296379 83.85213864 -47.24462891 86.27832031 C-49.66769813 88.7358799 -52.01863684 91.23826027 -54.32275391 93.80761719 C-74.66839157 116.4537662 -74.66839157 116.4537662 -89.85253906 117.6171875 C-98.61925263 118.01938249 -107.32901791 117.25862038 -116 116 C-110.79971008 109.7032546 -105.10573831 103.96404395 -99.32885742 98.19946289 C-98.25551036 97.12475871 -97.18237569 96.04984236 -96.10943604 94.97473145 C-93.21338358 92.07414493 -90.31420718 89.17670029 -87.41429687 86.27997136 C-84.37701672 83.24523177 -81.34218702 80.20804323 -78.30696106 77.17124939 C-73.21726051 72.07973376 -68.12546402 66.99032135 -63.0324707 61.90209961 C-57.13764644 56.01273425 -51.24645693 50.11975138 -45.35710829 44.2249108 C-40.29812863 39.16140204 -35.23721409 34.09983337 -30.1746586 29.03989977 C-27.15163207 26.0184349 -24.12929166 22.99629205 -21.10869408 19.97239876 C-18.27508069 17.13590904 -15.43905594 14.30185313 -12.60110474 11.46970367 C-11.55732079 10.42724787 -10.51439776 9.38392928 -9.47237587 8.33971214 C-8.05653249 6.92115982 -6.63733759 5.50595491 -5.21794128 4.09095764 C-4.42285251 3.29624589 -3.62776373 2.50153414 -2.80858135 1.68274021 C-1 0 -1 0 0 0 Z " fill="#FAD700" transform="translate(269,106)"/>
<path d="M0 0 C30.35296999 5.93417616 56.17454065 28.43572799 73.125 53.25 C87.23040483 74.5067181 93.20959628 97.8893336 93.09765625 123.2265625 C93.09664917 124.31735107 93.09564209 125.40813965 93.09460449 126.53198242 C93.08941675 130.56299915 93.07545588 134.59400076 93.0625 138.625 C93.041875 147.65875 93.02125 156.6925 93 166 C56.37 166 19.74 166 -18 166 C-18 144.88 -18 123.76 -18 102 C-17.67 102 -17.34 102 -17 102 C-17 122.79 -17 143.58 -17 165 C13.69 165 44.38 165 76 165 C75.938125 155.925 75.87625 146.85 75.8125 137.5 C75.80581299 134.69048828 75.79912598 131.88097656 75.79223633 128.98632812 C75.44904474 89.11580445 63.46145903 56.20341725 36 27 C35.4740625 26.40960938 34.948125 25.81921875 34.40625 25.2109375 C24.86730056 14.94196642 12.23520698 7.57948727 0 1 C0 0.67 0 0.34 0 0 Z " fill="#0276BA" transform="translate(329,56)"/>
<path d="M0 0 C-4.80818417 5.78590095 -9.97022734 11.11221429 -15.29418945 16.42358398 C-16.21029495 17.3414418 -17.12640045 18.25929962 -18.07026672 19.20497131 C-20.56344356 21.70267497 -23.05973405 24.19724413 -25.55676675 26.69109225 C-28.17364026 29.30542204 -30.78805965 31.92220426 -33.40287781 34.53858948 C-37.78640241 38.92392798 -42.17201976 43.30716529 -46.55883789 47.68920898 C-51.63569032 52.7605999 -56.70890282 57.83561072 -61.78027946 62.91247696 C-66.13862809 67.2753547 -70.49891116 71.63629196 -74.86083573 75.99559456 C-77.46467714 78.59787469 -80.06783264 81.20083128 -82.66924477 83.80554008 C-85.56090886 86.70061358 -88.45661863 89.59160642 -91.3527832 92.48217773 C-92.65170502 93.78413589 -92.65170502 93.78413589 -93.97686768 95.11239624 C-94.76050186 95.8932106 -95.54413605 96.67402496 -96.35151672 97.47850037 C-97.03599034 98.16259696 -97.72046396 98.84669355 -98.42567921 99.55152035 C-100 101 -100 101 -101 101 C-97.01929293 70.53228047 -78.37549646 42.24249146 -54.25 23.6875 C-39.91895948 12.77386145 -18.68611558 -0.61945191 0 0 Z " fill="#FCD900" transform="translate(236,54)"/>
<path d="M0 0 C3.24200378 5.52506922 4.58789996 9.83287407 4.50170898 16.21679688 C4.50711197 16.99515396 4.51251495 17.77351105 4.51808167 18.57545471 C4.5304902 21.12361828 4.51413149 23.67063436 4.49609375 26.21875 C4.49624892 28.00419168 4.49774092 29.78963369 4.50050354 31.57507324 C4.50188401 35.30720001 4.48938877 39.03894085 4.46655273 42.77099609 C4.4381692 47.53892201 4.44091018 52.30620728 4.45364285 57.0741806 C4.46061989 60.75809131 4.45278766 64.44185567 4.44038582 68.12574768 C4.43589099 69.8830967 4.43551719 71.64046153 4.43945122 73.39781189 C4.44238344 75.8599329 4.4257618 78.32119153 4.40405273 80.78320312 C4.40855438 81.49928238 4.41305603 82.21536163 4.41769409 82.95314026 C4.33256681 88.80597614 3.28610132 94.71389868 -1 99 C-4.01932315 98.89588541 -5.22233514 97.81562452 -7.5625 95.875 C-12.23387789 90.36516967 -13.37436101 85.55211951 -13.40405273 78.43164062 C-13.41091599 77.7103447 -13.41777924 76.98904877 -13.42485046 76.24589539 C-13.44302059 73.88247503 -13.43929578 71.51972461 -13.43359375 69.15625 C-13.43815978 67.50150336 -13.44346661 65.84675862 -13.44947815 64.1920166 C-13.45838963 60.73226187 -13.45600805 57.27273823 -13.44604492 53.81298828 C-13.43454872 49.39122186 -13.45478621 44.97025328 -13.48396206 40.54859161 C-13.50235317 37.13408388 -13.50202599 33.71976642 -13.49632454 30.30522156 C-13.49617173 28.6754189 -13.50218275 27.04560302 -13.51461601 25.41584778 C-13.52958288 23.13284946 -13.51880982 20.85131358 -13.50170898 18.56835938 C-13.50154282 17.27265015 -13.50137665 15.97694092 -13.50120544 14.64196777 C-12.74247792 9.12873714 -10.51917051 5.48119124 -6.5 1.5625 C-4 0 -4 0 0 0 Z " fill="#F0F0F0" transform="translate(273,147)"/>
<path d="M0 0 C1.73168945 1.22314453 1.73168945 1.22314453 3.55078125 2.8828125 C4.24800293 3.51783691 4.94522461 4.15286133 5.66357422 4.80712891 C6.43459473 5.53077637 7.20561523 6.25442383 8 7 C8.8573877 7.80228027 9.71477539 8.60456055 10.59814453 9.43115234 C13.40556474 12.09357667 16.17401194 14.79204981 18.9375 17.5 C19.41743408 17.95681152 19.89736816 18.41362305 20.3918457 18.88427734 C21.80551356 20.23087772 23.19798898 21.59961535 24.58984375 22.96875 C25.41347412 23.76732422 26.23710449 24.56589844 27.08569336 25.38867188 C29.47103831 28.64254888 29.82609735 31.0028519 30 35 C28.41161066 38.57387602 27.28365642 39.81089572 24 42 C20.8125 42.5625 20.8125 42.5625 17 42 C15.24243164 40.76538086 15.24243164 40.76538086 13.41015625 39.08984375 C12.7133374 38.45425537 12.01651855 37.81866699 11.29858398 37.16381836 C10.54005127 36.4497583 9.78151855 35.73569824 9 35 C8.17894775 34.22857666 7.35789551 33.45715332 6.51196289 32.66235352 C3.85728889 30.13341541 1.23856965 27.5713534 -1.375 25 C-2.27605469 24.13632812 -3.17710938 23.27265625 -4.10546875 22.3828125 C-12.25140397 14.34679245 -12.25140397 14.34679245 -13 8 C-12.3063376 4.94788543 -11.43209832 3.4641056 -9.3125 1.1875 C-5.83345609 -0.59903606 -3.87788477 -0.64631413 0 0 Z " fill="#000000" transform="translate(103,18)"/>
<path d="M0 0 C1.24101974 -0.00855011 1.24101974 -0.00855011 2.5071106 -0.01727295 C4.25716882 -0.02671523 6.00724477 -0.03325387 7.75732422 -0.03710938 C10.42837681 -0.04681347 13.09865925 -0.07784285 15.76953125 -0.109375 C17.47134961 -0.11590558 19.17317346 -0.12115584 20.875 -0.125 C21.67098602 -0.1373468 22.46697205 -0.1496936 23.28707886 -0.16241455 C29.05719783 -0.13934801 32.39257144 1.02538394 36.5703125 5.203125 C37.36598592 12.13685049 37.36598592 12.13685049 34.63134766 15.80151367 C30.40181661 19.11989753 27.26512329 18.89427633 22.03515625 18.796875 C21.1194838 18.79691528 20.20381134 18.79695557 19.26039124 18.79699707 C17.32969274 18.79164799 15.39899435 18.77409142 13.46850586 18.74511719 C10.51413461 18.70321467 7.56204058 18.70405429 4.60742188 18.7109375 C2.72915083 18.7004461 0.85089153 18.68750826 -1.02734375 18.671875 C-1.90971207 18.67167358 -2.79208038 18.67147217 -3.70118713 18.67126465 C-9.79297982 18.55369049 -9.79297982 18.55369049 -12.97045898 16.80419922 C-15.33070087 14.21452776 -15.35860268 11.82008133 -15.6015625 8.4296875 C-15.33855388 5.02253041 -13.92959582 3.42526573 -11.4296875 1.203125 C-7.60639973 -0.07130426 -3.98556832 0.02117181 0 0 Z " fill="#000000" transform="translate(87.4296875,75.796875)"/>
<path d="M0 0 C3.23613354 1.74253345 3.82395315 2.47185944 5 6 C5.12126313 8.89083944 5.18817303 11.75679107 5.203125 14.6484375 C5.20882507 15.49798004 5.21452515 16.34752258 5.22039795 17.22280884 C5.22984105 19.01994585 5.23637919 20.81710013 5.24023438 22.61425781 C5.24993891 25.35773037 5.28096785 28.10045327 5.3125 30.84375 C5.31903051 32.59114139 5.32428079 34.33853813 5.328125 36.0859375 C5.3404718 36.9037973 5.3528186 37.7216571 5.36553955 38.56430054 C5.34742067 43.21762968 4.97846199 46.19683172 2 50 C-0.65499724 52.08606926 -2.06750504 51.99879455 -5.5 51.9375 C-9.83972782 50.77507291 -10.70272515 49.8208673 -13 46 C-13.58544001 42.9033516 -13.58464234 39.86357827 -13.56640625 36.71875 C-13.57260483 35.82764526 -13.57880341 34.93654053 -13.58518982 34.01843262 C-13.59227675 32.13908986 -13.58913366 30.25968418 -13.57641602 28.38037109 C-13.56254307 25.5089143 -13.59664388 22.64071336 -13.63476562 19.76953125 C-13.63571682 17.94010337 -13.63385795 16.11067142 -13.62890625 14.28125 C-13.64216446 13.42591675 -13.65542267 12.5705835 -13.66908264 11.68933105 C-13.6002881 7.27431925 -13.4223358 5.53365708 -10.59179688 1.95703125 C-6.63658487 -1.02949658 -4.85076145 -0.61596971 0 0 Z " fill="#000000" transform="translate(162,0)"/>
<path d="M0 0 C0 9.9 0 19.8 0 30 C-9.9 30 -19.8 30 -30 30 C-26.19414061 25.55983071 -22.52338931 21.39557863 -18.41796875 17.28515625 C-17.91832108 16.78455185 -17.4186734 16.28394745 -16.90388489 15.76817322 C-15.86236119 14.72597637 -14.81960329 13.68501152 -13.77563477 12.64526367 C-12.17019485 11.04525338 -10.57025692 9.4398769 -8.97070312 7.83398438 C-7.95344609 6.81738694 -6.93587953 5.8010991 -5.91796875 4.78515625 C-4.99781982 3.86613525 -4.0776709 2.94711426 -3.12963867 2.00024414 C-1 0 -1 0 0 0 Z " fill="#FABE07" transform="translate(243,192)"/>
<path d="M0 0 C5.61 0 11.22 0 17 0 C17.556875 1.32 18.11375 2.64 18.6875 4 C20.72898032 8.61711141 23.20889545 12.80190423 26 17 C18.87255286 17.65994881 13.93390937 16.01694839 8 12 C3.95337323 8.29792298 1.343069 5.37227601 0 0 Z " fill="#0276BA" transform="translate(228,239)"/>
</svg>
